<svg width="50" height="49" viewBox="0 0 50 49" fill="none" xmlns="http://www.w3.org/2000/svg">
<g clip-path="url(#clip0_12_343)">
<path d="M36.7685 15.3143V7.65842C36.7685 6.81284 36.0827 6.12726 35.2366 6.12726H33.7046V1.53375C33.7046 0.68816 33.0188 0.0025787 32.1726 0.0025787C30.0038 0.0025787 26.6823 -0.163553 22.7832 2.1711C20.3595 1.45001 18.6453 1.53375 16.853 1.53375C16.0069 1.53375 15.321 2.21933 15.321 3.06492V6.12726H13.789C12.9429 6.12726 12.2571 6.81284 12.2571 7.65842V15.3143C12.2571 21.5501 16.9435 26.7123 22.9808 27.4681V47.4688C22.9808 48.3144 23.6667 49 24.5128 49C25.3589 49 26.0448 48.3144 26.0448 47.4688V42.1097H28.3427C32.9887 42.1097 36.7685 38.3319 36.7685 33.6883V31.3915C36.7685 30.546 36.0827 29.8604 35.2366 29.8604H31.4067C29.3715 29.8604 27.5026 30.5853 26.0448 31.7903V27.4674C32.0732 26.7212 36.7685 21.5847 36.7685 15.3143ZM33.7046 15.3143C33.7046 18.0393 32.4989 20.5004 30.5932 22.1879C30.6233 21.9422 30.6407 21.6926 30.6407 21.4389C30.6407 17.5614 29.1903 14.0165 26.8043 11.3159C28.8271 9.93633 31.2255 9.18959 33.7046 9.18959V15.3143ZM30.6407 3.06492V6.43617C30.3576 6.49378 30.0764 6.55952 29.7976 6.63292C28.8038 5.52101 27.6703 4.57369 26.4327 3.8082C27.7704 3.31938 29.1905 3.06492 30.6407 3.06492ZM18.3849 4.59609C21.4285 4.59609 24.3841 5.70685 26.6827 7.82915C25.9241 8.22046 25.1967 8.67665 24.5083 9.1939C22.7271 7.85547 20.6458 6.89562 18.3849 6.43512V4.59609ZM15.321 15.3143V9.18959C22.0788 9.18959 27.5767 14.6846 27.5767 21.4389C27.5767 23.15 26.163 24.5443 24.4323 24.4998C19.0503 24.367 15.321 20.0933 15.321 15.3143ZM31.4067 32.9227H33.7046V33.6883C33.7046 36.6433 31.2993 39.0474 28.3427 39.0474H26.0448V38.2818C26.0448 35.3268 28.4502 32.9227 31.4067 32.9227Z" fill="white"/>
</g>
<defs>
<clipPath id="clip0_12_343">
<rect width="49.0255" height="49" fill="white"/>
</clipPath>
</defs>
</svg>
