<svg width="1920" height="821" viewBox="0 0 1920 821" fill="none" xmlns="http://www.w3.org/2000/svg">
<mask id="mask0_26_66" style="mask-type:alpha" maskUnits="userSpaceOnUse" x="0" y="0" width="1930" height="821">
<rect width="1930" height="821" fill="white"/>
</mask>
<g mask="url(#mask0_26_66)">
<path fill-rule="evenodd" clip-rule="evenodd" d="M1660.53 928.472C1660.45 906.492 1628.82 881.773 1615.3 869.03C1588.59 843.824 1560.8 820.548 1533.27 796.901C1505.74 773.253 1478.14 749.669 1451.89 723.708C1434.84 706.855 1414.81 687.874 1403.25 663.81C1378.63 612.527 1456.27 620.143 1476.38 619.021C1527.55 616.155 1586.23 617.463 1634.19 590.758C1662.82 574.815 1674.24 548.078 1668.09 509.109C1666.11 496.436 1660.24 481.853 1665.21 469.507C1670.52 456.32 1682.72 448.711 1692.86 443.609C1729.81 425.019 1772.31 422.865 1811.41 420.532C1853.58 417.968 1896.14 418.718 1938.01 418.519C1955.76 418.436 1974.3 410.185 1991.21 403.48C2013.37 394.692 2035.27 384.82 2057.25 375.275C2105.61 354.326 2155.43 332.262 2206.59 326.941C2238.63 323.608 2273.65 328.114 2298.53 357.108C2311.03 371.666 2317.57 393.307 2324.8 412.532C2333.54 435.756 2341.94 459.205 2351.25 482.064C2381.24 555.687 2424.06 627.63 2493.56 631.245C2504.08 631.79 2514.4 630.015 2524.87 629.681C2531.53 629.476 2537.46 631.559 2539.94 640.579C2546.17 663.201 2526.59 698.913 2518.57 716.861C2500.99 756.15 2481.17 793.676 2462.61 832.177C2450.32 857.638 2429.06 892.434 2428.84 923.37C2428.64 950.934 2456.98 970.857 2472.41 984.435C2486.87 997.146 2513.07 1014.93 2514.65 1040.79C2515.42 1053.33 2509.03 1063.72 2502.35 1071.79C2490.65 1085.89 2477.18 1095.84 2466.65 1111.93C2449.4 1138.33 2434.98 1174.65 2437.32 1210.22C2438.95 1234.87 2449.82 1251.01 2463.65 1266.44C2469.46 1272.92 2474.17 1277.51 2474.48 1288.05C2474.98 1304.77 2469.91 1322.47 2465.74 1337.98C2450.82 1393.47 2429.62 1447.13 2406.04 1497.23C2394.26 1522.27 2381.53 1547.23 2365.91 1568.59C2355.67 1582.62 2341.87 1599.31 2326.27 1599.29C2308.2 1599.29 2289.08 1590.86 2271.51 1584.55C2238.7 1572.76 2206.29 1559.13 2174.01 1545.15C2099.36 1512.8 2025.41 1477.84 1952.16 1440.25C1900.56 1413.73 1847.87 1387.18 1799.37 1351.92C1789.91 1345 1780.98 1336.92 1772.7 1327.81C1763.85 1318.24 1752.88 1313.96 1741.75 1310.76C1672.68 1290.95 1597.01 1306.16 1527.65 1315.7C1510.05 1318.12 1492.44 1320.55 1474.79 1322.24C1459.61 1323.69 1441.44 1327.87 1426.69 1321.6C1397.63 1309.26 1423.03 1263.78 1433.78 1245.24C1471.6 1179.99 1520.39 1124.79 1565.62 1068.43C1587.12 1041.59 1608.79 1014.82 1629.13 986.46C1639.72 971.716 1660.6 947.742 1660.53 928.472Z" stroke="#5BE7C3" stroke-width="2"/>
<path fill-rule="evenodd" clip-rule="evenodd" d="M1673.56 924.76C1661.97 901.501 1641.63 884.31 1624.75 868.131C1600.45 844.84 1575.39 822.843 1550.71 800.212C1527.37 778.811 1503.98 757.166 1482.37 732.863C1469.19 718.042 1452.65 700.319 1446.41 678.399C1432.87 630.888 1505.72 638.096 1523.7 636.853C1568.41 633.778 1619.1 633.073 1660.46 608.058C1686.29 592.437 1696.9 566.531 1691.39 530.566C1689.49 518.123 1686.05 507.499 1690.4 495.12C1695.42 480.793 1706.97 471.861 1717.56 465.556C1750.74 445.801 1789.95 441.605 1825.92 438.112C1863.07 434.505 1901.78 431.961 1937.74 434.601C1952.11 435.652 1968.67 429.687 1982.9 425.112C2004.79 418.063 2026.46 409.932 2048.25 402.371C2092.53 386.994 2137.96 372.179 2184.02 370.494C2217.27 369.277 2251.95 375.877 2279.61 401.385C2307.65 427.252 2320.09 467.35 2335.64 505.468C2362.5 571.369 2398.76 651.494 2460.89 665.418C2470.31 667.532 2479.37 666.385 2488.78 666.904C2493.62 667.167 2499.13 668 2501.58 674.17C2507.95 690.189 2490.49 719.478 2484.62 731.748C2468.38 765.656 2450.13 797.905 2433.12 831.16C2419.61 857.565 2402.48 886.905 2397.26 918.206C2390.92 956.189 2432.35 983.216 2446.92 1009.96C2472.19 1056.34 2424.32 1082.76 2400.73 1104.87C2373.63 1130.26 2351.26 1176.57 2375.56 1215.85C2384.85 1230.87 2396.28 1239.82 2400.43 1259.42C2406.92 1290.08 2402.01 1325.11 2396.75 1355.41C2388.81 1400.96 2376.26 1446.02 2359.19 1487.18C2346.97 1516.66 2326.68 1562.87 2296.98 1559.41C2276.98 1557.1 2256.65 1548.64 2237.18 1541.17C2208.03 1529.99 2179.24 1517.25 2150.6 1504.01C2084.51 1473.54 2019.14 1439.93 1955.05 1402.98C1911.32 1377.75 1789.35 1274.66 1780.17 1270.98C1752.81 1260.03 1721.69 1261.95 1693.48 1263.65C1655.95 1265.91 1618.61 1271.75 1581.3 1277.17C1563.54 1279.73 1545.69 1282.86 1527.84 1284.12C1515.13 1285.02 1498.44 1285.79 1487.31 1276.24C1465.58 1257.6 1489.79 1214.95 1499.8 1196.91C1530.46 1141.59 1569.26 1093.69 1605.63 1044.71C1623.48 1020.66 1641.6 996.652 1657.81 970.676C1664.34 960.187 1680.72 939.126 1673.56 924.76Z" stroke="#5ACEF2" stroke-width="2"/>
<path fill-rule="evenodd" clip-rule="evenodd" d="M1689.6 912.839C1657.94 866.295 1614.24 831.679 1576.53 792.806C1557.6 773.29 1538.56 753.242 1522.23 729.995C1513.74 717.907 1503.13 702.621 1501.5 685.771C1497.13 640.695 1562.78 646.79 1582.44 645.079C1620.43 641.759 1663.35 639.24 1697.82 616.237C1718.88 602.175 1729.25 579.095 1725.32 548.76C1723.57 535.301 1720.85 523.867 1725.32 510.651C1729.84 497.262 1739.26 487.814 1748.8 480.732C1776.21 460.364 1810.27 453.852 1841.13 449C1877.33 443.349 1913.81 441.142 1950.26 442.398C1982.19 443.481 2013.96 431.297 2045.13 423.267C2086.43 412.634 2128.47 403.347 2170.73 404.75C2204.1 405.865 2237.74 414.627 2266.27 437.912C2295.26 461.626 2312.69 497.121 2328.41 535.423C2352.17 593.324 2381.77 670.915 2433.89 692.905C2441.47 696.11 2448.54 696.462 2456.35 697.02C2460.15 697.289 2465.05 697.372 2466.94 702.493C2471.47 714.825 2454.72 738.731 2450.04 747.063C2435.12 773.662 2418.94 799.062 2403.65 825.308C2389.37 849.81 2373.82 875.345 2364.95 904.058C2350.84 949.789 2395.96 976.528 2394.7 1020.1C2393.91 1047.16 2373.88 1066.56 2358.01 1079.98C2338.48 1096.48 2310.35 1107.34 2300.58 1137.45C2293.3 1159.88 2304.72 1172.94 2313.52 1189.96C2328.43 1218.81 2329.45 1257.9 2327.9 1291.29C2325.81 1336.4 2317.63 1382.18 2303.72 1423.65C2297.41 1442.45 2289.69 1462.01 2278.31 1476.61C2267.66 1490.29 2257.58 1493.8 2243.34 1490.99C2199.75 1482.41 2155.74 1458.47 2113.95 1437.09C2061.43 1410.22 2009.64 1380.56 1959.4 1347.18C1925.13 1324.42 1890.1 1300.34 1860.03 1268.9C1852.19 1260.7 1844.16 1251.79 1838.43 1240.98C1834.1 1232.85 1832.26 1226.14 1824.96 1221.5C1803.31 1207.76 1773.21 1211.35 1750.01 1212.78C1712.93 1215.06 1676.03 1221.11 1639.17 1226.57C1617.67 1229.77 1577.16 1239.85 1559.98 1215.67C1545.16 1194.79 1563.05 1159.19 1572.18 1140.79C1595.29 1094.27 1625.03 1053.45 1652.61 1011.41C1665.25 992.141 1678.39 972.727 1688.83 951.308C1691.5 945.847 1695.77 938.611 1696.5 931.977C1697.33 924.376 1693.48 918.575 1689.6 912.839Z" stroke="#5BE7C3" stroke-width="2"/>
<path fill-rule="evenodd" clip-rule="evenodd" d="M1692.32 923.666C1663.07 882.512 1627.82 848.703 1596.42 810.192C1582.33 792.925 1568.11 774.811 1557.38 753.747C1551.61 742.419 1545.48 728.161 1547.08 714.081C1551.64 673.672 1605.64 677.321 1627.46 674.955C1659.88 671.478 1697.12 667.976 1725.78 646.187C1744.56 631.915 1751.6 610.838 1748.09 583.654C1744.33 554.495 1752.75 533.329 1771.89 517.062C1795.9 496.684 1826.21 488.378 1854.08 482.477C1887.67 475.401 1921.68 472.264 1955.7 473.105C1988.78 473.926 2020.84 466.755 2053.71 462.092C2097.29 455.915 2142.26 452.869 2185.35 465.53C2222.86 476.556 2256.75 500.853 2282.15 538.428C2308.68 577.644 2321.82 627.053 2343.36 670.439C2356.8 697.501 2375.53 733.298 2400.64 743.818C2409.02 747.326 2424.28 742.593 2417.59 759.853C2413.77 769.725 2406.61 778.384 2400.96 786.453C2391.83 799.493 2382.39 812.174 2373.1 825.035C2353.31 852.449 2332.11 880.447 2317.28 912.909C2298.59 953.781 2326.37 985.236 2322.99 1026.68C2321.17 1048.98 2309.18 1066.78 2296.49 1080.76C2288.29 1089.82 2279.31 1097.66 2270.14 1104.98C2260.57 1112.63 2249.24 1118.45 2240.89 1128.34C2228.99 1142.4 2234.15 1159.06 2236.39 1177.24C2240.31 1209.2 2241.18 1241.66 2238.95 1273.89C2236.24 1313.39 2229.87 1354.03 2216.44 1389.93C2211.22 1403.91 2204.61 1418.72 2194.79 1428.09C2184.96 1437.46 2174.8 1436.82 2163.55 1434C2130.16 1425.66 2096.85 1406.26 2065.18 1387.87C2025.54 1364.85 1986.69 1339.12 1949.58 1309.85C1923.96 1289.65 1898.27 1267.82 1876.84 1240.43C1870.6 1232.45 1864.67 1223.92 1859.88 1214.38C1856.59 1207.85 1854.82 1199.41 1850.05 1194.5C1835.13 1179.16 1805.16 1183.74 1787.66 1184.64C1752.73 1186.41 1718.35 1194.86 1683.46 1196.91C1664.42 1198.03 1634.6 1200.86 1620.62 1179.89C1607.47 1160.18 1619.38 1129.13 1627.24 1110.14C1642.69 1072.8 1663.44 1039.53 1682.04 1004.81C1689.68 990.528 1698.06 975.583 1703.01 959.271C1707.42 944.737 1699.82 934.217 1692.32 923.666Z" stroke="#5ACEF2" stroke-width="2"/>
<path fill-rule="evenodd" clip-rule="evenodd" d="M1699.51 924.344C1676.23 888.13 1648.16 855.983 1624.7 819.18C1610.98 797.627 1587.33 761.393 1597.95 731.008C1609.6 697.619 1650.2 696.709 1673.67 694.019C1701.6 690.817 1734.4 686.442 1758.31 665.594C1765.87 659.003 1772.31 650.279 1775.04 638.789C1777.96 626.491 1774.76 615.731 1774.35 603.42C1773.48 577.595 1785.4 556.862 1801.17 542.624C1823.47 522.493 1851.34 512.975 1877.67 506.339C1907.51 498.855 1937.84 495.165 1968.22 495.323C1997.27 495.451 2026 494.618 2055.07 493.657C2093.09 492.376 2131.65 494.445 2168.53 507.505C2204.86 520.379 2237.89 544.507 2263.83 579.997C2289.14 614.629 2306.22 656.96 2321.18 700.078C2329.66 724.552 2344 761.124 2364.24 773.486C2373.25 778.988 2382.08 778.61 2372.51 792.919C2360.45 810.936 2344.21 825.392 2330.25 840.803C2310.11 863.041 2289.46 885.715 2272.56 912.155C2261.77 929.038 2256.95 945.422 2257.7 967.283C2258.27 983.936 2260.88 1000.42 2259.56 1017.13C2256.47 1056.37 2232.58 1083.28 2211.45 1108.33C2197.86 1124.45 2185.45 1136.74 2178.46 1159.66C2170.19 1186.76 2166.71 1216.23 2161.18 1244.36C2155.11 1275.26 2148.09 1307.39 2134.84 1334.6C2123.04 1358.82 2108.68 1369.68 2087.2 1363.16C2053.7 1352.99 2020.67 1327.93 1990.92 1304.75C1960.65 1281.17 1930.89 1254.65 1905.81 1222.23C1892.26 1204.73 1883.02 1184.18 1870.99 1165.37C1855.86 1141.76 1821.63 1150.7 1801.28 1152.7C1767.52 1156.02 1661.26 1180.85 1671.07 1100.44C1675.16 1066.87 1691.27 1035.9 1703.06 1006.28C1707.95 993.992 1715.02 979.241 1716.12 965.156C1717.32 949.816 1706.51 935.245 1699.51 924.344Z" stroke="#FF8062" stroke-width="2"/>
<path fill-rule="evenodd" clip-rule="evenodd" d="M1711.81 927.411C1694.01 894.594 1672.72 863.591 1657.45 828.146C1647.55 805.191 1637.82 774.521 1650.6 750.233C1665.02 722.824 1696.82 716.435 1720.18 712.943C1744.26 709.348 1773 706.323 1792.67 685.541C1798.93 678.921 1804.09 669.994 1805.05 659.305C1805.98 649.051 1803.36 638.798 1804.23 628.359C1806.17 604.917 1817.16 585.602 1831.33 571.594C1873.24 530.151 1935.62 520.935 1986.19 519.852C2011.5 519.314 2037.55 522.14 2063.03 524.165C2096.09 526.793 2129.19 532.432 2160.72 546.024C2227.75 574.913 2272.68 638.984 2304.06 718.71C2313.93 743.805 2321.49 770.958 2336.97 791.125C2344.94 801.538 2343.2 809.017 2335.04 818.514C2322.29 833.356 2306.74 844.699 2292.58 857.086C2272.45 874.703 2251.89 892.582 2234.08 913.685C2221.81 928.232 2213.1 942.247 2210.46 964.061C2208.57 979.614 2209.01 995.462 2207.88 1011.11C2205.72 1040.84 2198.32 1070.34 2185.23 1095C2174.83 1114.55 2162.45 1132.31 2149.66 1149.25C2133.02 1171.3 2118.95 1193.7 2106.32 1219.88C2089.57 1254.52 2066.03 1318.42 2026.58 1301.51C1983.07 1282.85 1942.29 1235.44 1914.37 1189.49C1905 1174.07 1897.3 1155.15 1884.66 1143.78C1865.73 1126.78 1846.52 1127.37 1824.01 1127.44C1790.3 1127.54 1716.96 1137 1716.17 1071.69C1715.85 1045.81 1724.51 1021.35 1728.66 996.455C1733.33 968.579 1723.96 949.777 1711.81 927.411Z" stroke="#F1B170" stroke-width="2"/>
<path fill-rule="evenodd" clip-rule="evenodd" d="M1725.06 930.341C1707.46 887.57 1667.99 817.287 1698.01 769.725C1713.87 744.59 1741.91 735.145 1765.44 729.516C1784.37 724.962 1807.21 723.253 1821.51 703.951C1832.03 689.76 1827.36 669.108 1831.39 651.343C1836.39 629.32 1847.86 611.3 1861.97 597.756C1901.38 559.902 1956.17 548.286 2003.58 545.814C2052.81 543.252 2107.06 555.234 2153.39 578.282C2211.16 607.029 2254.43 661.462 2284.7 730.393C2290.29 743.117 2295.36 756.175 2300.72 769.053C2304.32 777.692 2309.66 786.049 2312.5 795.136C2317.23 810.288 2311.66 822.673 2302.73 832.548C2289.89 846.764 2274.11 856.882 2259.47 867.551C2239.45 882.152 2218.98 896.49 2200.35 913.621C2187.83 925.148 2174.73 937.565 2170.25 957.564C2167.19 971.204 2166.56 985.651 2166.67 999.778C2166.91 1030.07 2165.68 1054.56 2154.75 1082.31C2136.76 1127.85 2109.1 1168.8 2079.88 1202.88C2056.95 1229.62 2020.66 1271.16 1987.25 1253.28C1957.27 1237.27 1939.73 1198.95 1919.98 1167.97C1910.38 1152.91 1899.59 1139.15 1886.92 1128.44C1870.94 1114.93 1855.89 1109.27 1836.96 1107.06C1805.09 1103.34 1757.04 1102.37 1747.19 1052.93C1743.55 1034.69 1745.63 1015.79 1743.72 997.307C1741.23 972.869 1733.94 951.916 1725.06 930.341Z" stroke="#5BE7C3" stroke-width="2"/>
<path fill-rule="evenodd" clip-rule="evenodd" d="M1743.36 931.926C1730.83 885.126 1714.36 826.145 1744.64 784.55C1759.3 764.4 1779.92 753.136 1799.88 744.718C1814.18 738.686 1836.88 736.91 1845.64 718.363C1852.08 704.714 1852.97 685.885 1858.8 671.261C1866.8 651.156 1878.92 634.597 1893.14 621.633C1930.19 587.854 1978.45 574.801 2022.46 571.063C2118.08 562.954 2215.37 627.544 2266.54 733.813C2281.8 765.49 2301.49 799.205 2276.84 831.568C2249.92 866.874 2209.37 883.414 2177.24 908.5C2164.96 918.078 2149.32 929.592 2142.47 946.934C2138.35 957.359 2138.07 970.437 2137.88 981.913C2137.39 1011.14 2135.51 1037.43 2126.42 1064.7C2112.39 1106.84 2090.01 1145.73 2064.65 1177.58C2042.54 1205.35 2011 1237.99 1978.88 1217.97C1954.26 1202.58 1938.64 1169.92 1919.5 1145.85C1898.21 1119.04 1871.88 1100.97 1842.96 1092.14C1814.82 1083.58 1783.97 1077.8 1769.14 1041.41C1764.06 1028.93 1758.74 1012.77 1756.84 998.953C1753.76 976.174 1749.25 953.758 1743.36 931.926V931.926Z" stroke="#FF8062" stroke-width="2"/>
<path fill-rule="evenodd" clip-rule="evenodd" d="M1763.77 932.251C1757.97 884.993 1757.33 835.716 1784.27 798.469C1796.84 781.093 1812.73 768.748 1828.8 757.563C1840.63 749.333 1852.84 742.391 1861.67 728.899C1869.85 716.406 1876.07 701.901 1883.97 689.082C1894.39 672.094 1906.86 657.387 1920.9 645.528C1956.08 615.858 1998.89 601.981 2039.84 597.167C2059.66 594.828 2081.16 593.61 2100.85 599.988C2119.87 606.141 2138.67 615.871 2156.15 627.216C2193.32 651.31 2225.53 686.595 2248.89 731.206C2264.9 761.806 2273.56 791.559 2252.82 822.601C2229.44 857.592 2192.79 876.898 2162.58 899.607C2141.86 915.183 2118.64 930.45 2114.77 963.55C2111.68 989.887 2109.18 1014.88 2101.21 1039.78C2089.34 1076.5 2071.89 1109.76 2049.9 1137.6C2029.78 1162.95 2004.33 1184.47 1975.56 1170.93C1952.76 1160.18 1935.08 1136.1 1915.16 1118.88C1892.96 1099.65 1868.57 1089.05 1842.89 1080.53C1819.81 1072.83 1798.08 1061.01 1783.17 1035.92C1780.11 1030.79 1776.91 1025.21 1774.55 1019.47C1771.55 1012.15 1771.78 1004.9 1771.19 996.694C1769.66 975.042 1766.39 953.64 1763.77 932.251Z" stroke="#F1B170" stroke-width="2"/>
<path fill-rule="evenodd" clip-rule="evenodd" d="M1786.27 928.391C1786.77 883.503 1795.11 841.08 1817.97 806.097C1827.75 791.133 1839.42 778.806 1850.17 765.093C1858.83 754.038 1867.01 743.766 1876.97 734.656C1900.59 713.085 1919.78 685.171 1944.88 665.962C1978.39 640.283 2016.76 626.088 2054.85 620.413C2073.44 617.639 2092.65 616.67 2111.47 619.803C2127.62 622.493 2143.1 631.937 2157.45 641.599C2185.59 660.525 2212.91 687.424 2231.18 721.457C2271.45 796.487 2192.04 851.037 2151.29 882.983C2132.54 897.678 2103.9 914.698 2096.22 943.806C2090.73 964.6 2087.39 985.747 2080.32 1005.9C2061.34 1060.02 2022.79 1123.67 1971.43 1115.2C1949.45 1111.58 1929.42 1096.87 1908.9 1087C1887.78 1076.83 1865.97 1071.16 1844.01 1064.94C1823.49 1059.13 1807.13 1050.86 1793.88 1028.69C1787.54 1018.1 1788.1 1005.43 1787.54 992.443C1786.62 971.11 1786.05 949.654 1786.27 928.391Z" stroke="#5BE7C3" stroke-width="2"/>
<path fill-rule="evenodd" clip-rule="evenodd" d="M1806.76 922.639C1815.01 854.884 1845.66 780.914 1890.72 741.566C1943.73 695.279 2001.15 656.302 2064.48 645.097C2093.84 639.901 2126.01 637.345 2153.71 654.335C2174.8 667.257 2199.29 686.573 2210.89 713.736C2239.28 780.178 2176.14 833.07 2140.16 863.808C2120.79 880.356 2096.13 896.481 2081.54 920.646C2073.07 934.657 2068.74 953.191 2061.9 968.58C2041.18 1015.21 2007.07 1052.82 1964.57 1059.55C1944.93 1062.66 1925.13 1058.81 1905.64 1055.76C1885.68 1052.63 1865.47 1050.93 1845.63 1046.57C1829.8 1043.09 1811.14 1037.19 1805.31 1015.27C1797.95 987.652 1803.39 950.308 1806.76 922.639Z" stroke="#5ACEF2" stroke-width="2"/>
<path fill-rule="evenodd" clip-rule="evenodd" d="M1826.85 911.757C1838.88 848.055 1864.37 785.919 1907.21 747.89C1929.93 727.725 1956.3 713.805 1981.62 700.052C2010.32 684.465 2040.31 672.365 2070.94 666.364C2109.07 658.888 2170.83 652.149 2190.76 708.349C2210.53 764.131 2160.56 813.502 2131.01 841.637C2112.06 859.661 2091.79 876.203 2073.69 895.907C2063.87 906.589 2056.31 918.931 2048 931.46C2025.05 966.174 1992.32 993.655 1958.96 1008.32C1926.63 1022.55 1886.64 1028.84 1852.51 1024.14C1837.78 1022.12 1827.26 1015.31 1822.8 995.931C1816.63 968.995 1821.88 938.071 1826.85 911.757Z" stroke="#F1B170" stroke-width="2"/>
<path fill-rule="evenodd" clip-rule="evenodd" d="M1846.81 894.599C1858.77 838.513 1884.56 787.285 1922.17 753.623C1964.33 715.888 2018.62 694.919 2068.52 684.256C2095.05 678.592 2152.53 663.236 2166.05 707.185C2179.57 751.133 2140.48 794.443 2117.99 818.285C2090.69 847.177 2061.25 875.074 2031.85 900.997C2006.31 923.536 1979.05 946.58 1951.38 963.986C1935.78 973.86 1919.52 981.922 1902.81 988.076C1890.43 992.597 1874.69 999.34 1861.72 995.975C1828.99 987.476 1841.1 921.416 1846.81 894.599Z" stroke="#FF8062" stroke-width="2"/>
<path fill-rule="evenodd" clip-rule="evenodd" d="M1871.46 877.804C1897.69 771.737 1980.8 719.572 2060.82 701.389C2079.41 697.169 2131.54 681.951 2141.93 714.352C2152 745.767 2119.97 783.022 2104.98 800.673C2058.51 855.368 2001.09 895.922 1946.69 936.098C1929.71 948.638 1899.08 975.851 1878.02 963.298C1855.15 949.644 1866.02 899.797 1871.46 877.804Z" stroke="#5ACEF2" stroke-width="2"/>
<path fill-rule="evenodd" clip-rule="evenodd" d="M1898.33 857.387C1921.14 779.278 1987.49 734.479 2048.49 719.71C2063.43 716.097 2101.38 704.846 2112.7 726.643C2123.17 746.806 2098.18 776.023 2088.83 787.633C2068.01 813.486 2043.34 834.783 2018.97 855.254C1996.44 874.193 1973.66 893.607 1949.95 909.625C1937.46 918.057 1914.04 936.048 1899.85 923.029C1884.57 909.023 1893.26 874.732 1898.33 857.387Z" stroke="#5ACEF2" stroke-width="2"/>
<path fill-rule="evenodd" clip-rule="evenodd" d="M1164.85 988.572C1164.22 938.531 1143.66 886.524 1153.81 835.535C1162.15 793.658 1204.12 790.162 1229.3 771.189C1249.31 756.116 1260.67 729.414 1271.49 703.795C1281.21 680.795 1289.94 657.103 1300.18 634.48C1306.81 619.855 1318.2 591.137 1332.58 590.618C1346.34 590.119 1358.96 612.498 1366.96 625.727C1377.38 642.971 1386.63 661.355 1396.75 678.874C1413.81 708.425 1434.28 730.298 1457.72 751C1484.39 774.555 1511.5 797.306 1539.05 819.252C1559.34 835.458 1579.77 851.543 1599.26 869.35C1611.5 880.524 1638.49 901.488 1638.61 922.087C1638.67 931.916 1631.48 942.802 1626.62 950.658C1618.41 963.958 1609.05 976.118 1599.66 988.015C1582.17 1010.18 1563.93 1031.33 1545.9 1052.74C1522.49 1080.53 1500.13 1107.87 1479.55 1139.42C1458.28 1172.08 1437.95 1205.81 1417.21 1239.08C1403.16 1261.62 1389.13 1286.93 1368.87 1300.76C1343.49 1318.05 1322.66 1299.82 1297 1299.61C1274.92 1299.42 1276.55 1233.24 1273.74 1214.84C1270.93 1196.21 1264.72 1178.87 1262.32 1160.2C1259.32 1136.89 1259.28 1113.04 1258.54 1089.49C1257.65 1060.67 1257.29 1033.24 1233.49 1022.25C1219.94 1016.01 1205.28 1014.7 1191.26 1010.96C1182.18 1008.53 1165.04 1004.38 1164.85 988.572Z" stroke="#FF8062" stroke-width="2"/>
<path fill-rule="evenodd" clip-rule="evenodd" d="M1175.7 979.674C1173.39 937.727 1159.71 884.038 1172.64 840.738C1183.69 803.736 1218.23 798.939 1241.49 779.501C1260.69 763.469 1269.24 737.234 1278.84 711.46C1286.54 690.785 1294.01 669.911 1302.75 649.897C1309.19 635.147 1319.03 610.246 1332.42 607.193C1344.46 604.448 1357.38 626.432 1364.14 637.616C1374 653.943 1382.43 671.675 1391.14 689.034C1406.45 719.528 1422.12 746.949 1444.53 769.35C1467.03 791.846 1491.65 808.667 1516.53 826.174C1535.99 839.872 1555.36 853.968 1573.85 869.782C1587.63 881.556 1607.43 896.626 1613.74 917.622C1618.73 934.232 1593.42 961.794 1585.96 971.523C1570.59 991.525 1554.32 1010.3 1538.01 1028.96C1518.13 1051.7 1497.61 1071.59 1480.06 1097.53C1448.65 1143.91 1422.41 1201.66 1382 1236.13C1357.63 1256.92 1330.51 1262.24 1303.4 1259.13C1292.67 1257.9 1290.09 1238.29 1288.74 1226.86C1286.49 1207.86 1286.21 1188.54 1284.48 1169.47C1282.86 1151.62 1279.26 1134.65 1276.36 1117.15C1273.43 1099.41 1272.61 1081.23 1270.45 1063.37C1269.11 1052.29 1267.78 1039.38 1261.93 1030.47C1255.88 1021.24 1245.89 1017.38 1237.16 1014.44C1220.76 1008.97 1177.33 1009.28 1175.7 979.674Z" stroke="#5BE7C3" stroke-width="2"/>
<path fill-rule="evenodd" clip-rule="evenodd" d="M1189.67 962.112C1185.78 923.608 1180.33 875.652 1196.18 840.177C1209.14 811.171 1236.78 804.914 1256.52 786.014C1272.94 770.297 1279.15 745.3 1287.3 722.071C1293.99 703.018 1300.71 683.881 1308.81 665.75C1314.96 652 1322.88 633.356 1335.09 628.559C1345.53 624.46 1357.32 642.822 1363.1 651.961C1372.95 667.537 1380.98 684.989 1388.96 702.211C1402.01 730.391 1414.02 760.492 1432.59 783.414C1450.64 805.657 1472.07 818.786 1493.91 833.548C1510.64 844.859 1527.26 856.604 1543.03 870.092C1555.13 880.442 1570.12 892.707 1576.43 909.928C1581.88 924.781 1567.88 942.361 1560.89 952.839C1549.34 970.131 1536.52 985.995 1523.87 1001.92C1510.23 1019.11 1495.12 1034.96 1481.92 1052.56C1454.15 1089.61 1431.97 1130.63 1397.75 1159.02C1375.59 1177.41 1345.77 1194.11 1319.57 1191.11C1300.73 1188.94 1301.97 1135 1300.16 1117.77C1297.19 1089.59 1291.44 1059.98 1282.31 1034.02C1274.48 1011.78 1255.85 1004.92 1238.72 999.931C1227.98 996.799 1216.73 995.108 1206.35 990.267C1194.33 984.656 1191.3 978.252 1189.67 962.112Z" stroke="#5ACEF2" stroke-width="2"/>
<path fill-rule="evenodd" clip-rule="evenodd" d="M1202.7 944.066C1200.38 911.513 1200.9 873.018 1215.91 844.859C1229.07 820.193 1252.49 813.699 1269.14 794.269C1282.14 779.11 1287.25 754.393 1294.24 734.346C1302.79 709.835 1314.76 664.564 1336.32 655.34C1356.37 646.765 1377.34 701.542 1384.6 717.877C1396.09 743.731 1405.7 772.083 1419.64 795.958C1431.64 816.513 1447.72 827.875 1464.79 840.086C1486.55 855.682 1519.6 874.174 1531.23 904.569C1539.91 927.218 1511.7 960.888 1502.07 976.581C1492 992.973 1484.41 1012.4 1474.02 1028.22C1457.61 1053.17 1431.03 1073.26 1409.08 1088.6C1387.75 1103.51 1360.04 1120.02 1335.83 1119.04C1319.93 1118.39 1316.9 1086.61 1313.5 1071.09C1308.64 1049.02 1302.18 1029.24 1288.29 1014.23C1274.15 998.946 1257.49 991.746 1239.97 985.445C1230.98 982.233 1220.73 979.728 1212.68 973.24C1203.79 966.181 1203.59 956.578 1202.7 944.066Z" stroke="#F1B170" stroke-width="2"/>
<path fill-rule="evenodd" clip-rule="evenodd" d="M1218.57 925.3C1218.7 897.177 1223.67 867.187 1238.41 845.493C1250.69 827.424 1269.9 821.384 1281.65 802.912C1290.96 788.287 1295.7 767.757 1301.93 750.774C1309.55 729.963 1320.33 693.607 1339.28 686.384C1357.78 679.353 1374.14 719.397 1381.24 735.242C1391.62 758.476 1400.03 783.104 1410.51 806.274C1418.72 824.452 1428.76 836.168 1442.13 847.884C1457.82 861.645 1479.72 876.889 1488.1 899.657C1494.15 916.141 1479.52 942.481 1474.2 957.003C1470.64 966.757 1467.38 976.664 1465.59 987.236C1464.2 995.468 1464.06 1003.09 1460.02 1010.16C1449.85 1027.94 1427.54 1030.26 1412.41 1036.12C1392.3 1043.9 1370.98 1052.74 1349.94 1054.43C1337.01 1055.48 1330.42 1040.07 1323.04 1029.23C1314.32 1016.41 1301.97 1007.2 1291.19 997.527C1276.96 984.743 1261.48 976.792 1245.46 968.649C1238.23 964.974 1229.74 961.369 1224.14 954.063C1218.3 946.489 1218.53 935.45 1218.57 925.3Z" stroke="#FF8062" stroke-width="2"/>
<path fill-rule="evenodd" clip-rule="evenodd" d="M1235.25 908.603C1237.8 884.983 1245.77 862.408 1259.21 845.71C1269.52 832.891 1283.21 825.673 1291.48 810.271C1299.19 795.913 1304.56 779.587 1310.93 764.236C1317.67 748.007 1327.68 720.881 1343.22 716.464C1359.97 711.708 1372.87 739.071 1380.02 754.237C1389.04 773.402 1395.9 794.022 1403.97 813.847C1410.05 828.624 1417.8 842.138 1426.98 853.94C1436.59 866.382 1449.64 878.297 1454.51 895.405C1458.81 910.558 1450.76 928.89 1449.34 944.254C1447.82 960.669 1450.48 977.911 1442.06 992.006C1424.68 1021.07 1381.06 1015.68 1356.13 1016.31C1331.53 1016.95 1311.75 999.16 1291.84 982.238C1278.69 971.066 1265 961.605 1251.52 951.195C1237.77 940.575 1233 929.39 1235.25 908.603Z" stroke="#5ACEF2" stroke-width="2"/>
<path fill-rule="evenodd" clip-rule="evenodd" d="M1250.74 895.086C1258.3 860.867 1281.89 842.68 1298.76 816.821C1312.56 795.651 1322.91 751.809 1346.15 746.01C1372.54 739.428 1388.34 797.517 1397.52 819.932C1407.7 844.791 1425.83 865.012 1433.37 891.327C1437.33 905.139 1433.93 918.027 1431.82 931.832C1429.51 946.991 1427.77 962.49 1419.78 974.692C1404.06 998.704 1373.36 998.537 1351.25 999.198C1328.36 999.884 1308.12 983.429 1289.88 967.007C1270.54 949.615 1243 930.177 1250.74 895.086Z" stroke="#5ACEF2" stroke-width="2"/>
<path fill-rule="evenodd" clip-rule="evenodd" d="M1263.39 885.806C1271.91 861.427 1289.8 841.607 1304.31 822.896C1316.43 807.298 1329.46 775.897 1347.93 773.659C1369.65 771.019 1382.8 804.549 1391.35 825.109C1399.75 845.312 1411.87 866.643 1416.53 888.816C1421.38 911.914 1408.45 943.022 1396.12 959.366C1382.37 977.592 1359.87 984.326 1340.56 983.599C1320.35 982.859 1301.8 967.797 1286.49 952.173C1270.13 935.471 1253.49 914.108 1263.39 885.806Z" stroke="#FF8062" stroke-width="2"/>
<path fill-rule="evenodd" clip-rule="evenodd" d="M1275.14 881.214C1283.27 860.937 1297.36 843.784 1310.36 828.483C1320.39 816.671 1335.19 796.585 1349.66 796.093C1365.58 795.55 1379.07 812.409 1385.4 829.69C1391.63 846.735 1398.21 868.105 1399.14 886.804C1401.17 927.525 1359.88 973.139 1328.88 969.428C1299.49 965.908 1258.92 921.616 1275.14 881.214Z" stroke="#5ACEF2" stroke-width="2"/>
<path fill-rule="evenodd" clip-rule="evenodd" d="M1285.99 878.981C1297.21 852.561 1324.46 814.896 1349.69 814.002C1378.64 812.979 1385.91 854.893 1382.14 885.268C1378.3 916.269 1344.92 961.141 1318.3 955.078C1292.32 949.161 1272.7 910.314 1285.99 878.981Z" stroke="#5BE7C3" stroke-width="2"/>
</g>
</svg>
